# xmcd
#
# Track frame offsets:
#	150
#	20900
#	39155
#	53117
#	72417
#	88257
#	104840
#	120120
#	136705
#	153400
#	170195
#	184962
#
# Disc length: 2696 seconds
#
# Revision: 5
# Processed by: cddbd v1.5.2PL0 Copyright (c) Steve Scherf et al.
# Submitted via: EZCDAudioConverter 6.0.2.1
#
DISCID=a70a860c
DTITLE=The Bellamy Brothers - Angels and Outlaws, Volume 1
DYEAR=2005
DGENRE=Country
TTITLE0=You Ain't Just Whistlin' Dixie (w Alan Jackson)
TTITLE1=Old Hippie (w Montgomery Gentry)
TTITLE2=Let Your Love Flow (w Hal Ketchum and Lisa Brokop)
TTITLE3=Guardian Angel (w Willie Nelson)
TTITLE4=If I Said You Had A Beautiful Body (Would You Hold It Against Me) (w D
TTITLE4=olly Parton)
TTITLE5=Redneck Girl (w  Pat Green)
TTITLE6=Dancin' Cowboys (w Trini Triggs)
TTITLE7=Sugar Daddy (w George Jones)
TTITLE8=Crazy From The Heart (w Chris Hillman, Herb Pederson and Rhonda Vin)
TTITLE9=Reggae Cowboy (w Tanya Tucker and David Allan Coe)
TTITLE10=Kids Of The Baby Boom (w Charie Daniels and Bobby Bare)
TTITLE11=Alligator Alley (w John Anderson)
EXTD=
EXTT0=
EXTT1=
EXTT2=
EXTT3=
EXTT4=
EXTT5=
EXTT6=
EXTT7=
EXTT8=
EXTT9=
EXTT10=
EXTT11=
PLAYORDER=
